<svg xmlns="http://www.w3.org/2000/svg" width="59" height="25" viewBox="0 0 59 25" fill="#FFFFFF">
  <path d="M4.125,15.3 L10.05,15.3 L10.05,18 L0.6,18 L0.6,0.35 L4.125,0.35 L4.125,15.3 Z M18.55,3.975 C19.9000067,3.975 21.1124946,4.2583305 22.1875,4.825 C23.2625054,5.3916695 24.1083302,6.21249462 24.725,7.2875 C25.3416697,8.36250537 25.65,9.62499275 25.65,11.075 C25.65,12.5250073 25.3416697,13.783328 24.725,14.85 C24.1083302,15.916672 23.2625054,16.7374971 22.1875,17.3125 C21.1124946,17.8875029 19.9000067,18.175 18.55,18.175 C17.1999933,18.175 15.9875054,17.8875029 14.9125,17.3125 C13.8374946,16.7374971 12.9916697,15.916672 12.375,14.85 C11.7583302,13.783328 11.45,12.5250073 11.45,11.075 C11.45,9.62499275 11.7583302,8.36250537 12.375,7.2875 C12.9916697,6.21249462 13.8374946,5.3916695 14.9125,4.825 C15.9875054,4.2583305 17.1999933,3.975 18.55,3.975 Z M18.55,7.025 C17.5666618,7.025 16.7333368,7.37082987 16.05,8.0625 C15.3666633,8.75417013 15.025,9.75832675 15.025,11.075 C15.025,12.3916733 15.3666633,13.3958299 16.05,14.0875 C16.7333368,14.7791701 17.5666618,15.125 18.55,15.125 C19.5333382,15.125 20.3666633,14.7791701 21.05,14.0875 C21.7333367,13.3958299 22.075,12.3916733 22.075,11.075 C22.075,9.75832675 21.7333367,8.75417013 21.05,8.0625 C20.3666633,7.37082987 19.5333382,7.025 18.55,7.025 Z M33.575,3.975 C34.7416725,3.975 35.7416625,4.24999725 36.575,4.8 C37.4083375,5.35000275 37.9999982,6.091662 38.35,7.025 L38.35,4.15 L41.85,4.15 L41.85,18.05 C41.85,19.3333398 41.5958359,20.4874949 41.0875,21.5125 C40.5791641,22.5375051 39.8208384,23.3416638 38.8125,23.925 C37.8041616,24.5083363 36.5833405,24.8 35.15,24.8 C33.14999,24.8 31.5333395,24.3250048 30.3,23.375 C29.0666605,22.4249953 28.316668,21.1333415 28.05,19.5 L31.525,19.5 C31.725001,20.2000035 32.1124971,20.7458314 32.6875,21.1375 C33.2625029,21.5291686 33.9999955,21.725 34.9,21.725 C35.9333385,21.725 36.7666635,21.4208364 37.4,20.8125 C38.0333365,20.2041636 38.35,19.2833395 38.35,18.05 L38.35,15.1 C37.9999982,16.033338 37.4083375,16.7791639 36.575,17.3375 C35.7416625,17.8958361 34.7416725,18.175 33.575,18.175 C32.4083275,18.175 31.358338,17.8916695 30.425,17.325 C29.491662,16.7583305 28.7625026,15.9375054 28.2375,14.8625 C27.7124974,13.7874946 27.45,12.5250073 27.45,11.075 C27.45,9.62499275 27.7124974,8.36250537 28.2375,7.2875 C28.7625026,6.21249462 29.491662,5.3916695 30.425,4.825 C31.358338,4.2583305 32.4083275,3.975 33.575,3.975 Z M34.675,7.05 C33.5749945,7.05 32.69167,7.40832975 32.025,8.125 C31.35833,8.84167025 31.025,9.82499375 31.025,11.075 C31.025,12.3250063 31.35833,13.3041631 32.025,14.0125 C32.69167,14.7208369 33.5749945,15.075 34.675,15.075 C35.741672,15.075 36.6208299,14.7125036 37.3125,13.9875 C38.0041701,13.2624964 38.35,12.2916728 38.35,11.075 C38.35,9.8416605 38.0041701,8.86250363 37.3125,8.1375 C36.6208299,7.41249637 35.741672,7.05 34.675,7.05 Z M51.45,3.975 C52.8000068,3.975 54.0124946,4.2583305 55.0875,4.825 C56.1625054,5.3916695 57.0083302,6.21249462 57.625,7.2875 C58.2416697,8.36250537 58.55,9.62499275 58.55,11.075 C58.55,12.5250073 58.2416697,13.783328 57.625,14.85 C57.0083302,15.916672 56.1625054,16.7374971 55.0875,17.3125 C54.0124946,17.8875029 52.8000068,18.175 51.45,18.175 C50.0999933,18.175 48.8875054,17.8875029 47.8125,17.3125 C46.7374946,16.7374971 45.8916698,15.916672 45.275,14.85 C44.6583303,13.783328 44.35,12.5250073 44.35,11.075 C44.35,9.62499275 44.6583303,8.36250537 45.275,7.2875 C45.8916698,6.21249462 46.7374946,5.3916695 47.8125,4.825 C48.8875054,4.2583305 50.0999933,3.975 51.45,3.975 Z M51.45,7.025 C50.4666618,7.025 49.6333367,7.37082987 48.95,8.0625 C48.2666633,8.75417013 47.925,9.75832675 47.925,11.075 C47.925,12.3916733 48.2666633,13.3958299 48.95,14.0875 C49.6333367,14.7791701 50.4666618,15.125 51.45,15.125 C52.4333383,15.125 53.2666633,14.7791701 53.95,14.0875 C54.6333367,13.3958299 54.975,12.3916733 54.975,11.075 C54.975,9.75832675 54.6333367,8.75417013 53.95,8.0625 C53.2666633,7.37082987 52.4333383,7.025 51.45,7.025 Z"/>
</svg>
